<?xml version="1.0" encoding="utf-8"?>
<!-- Generator: Adobe Illustrator 24.2.3, SVG Export Plug-In . SVG Version: 6.00 Build 0)  -->
<svg version="1.1"
	 id="waves_1_" inkscape:output_extension="org.inkscape.output.svg.inkscape" inkscape:version="0.45.1" sodipodi:docbase="C:\Wiki Uploads\Commons" sodipodi:docname="Cartas_Zener.svg" sodipodi:version="0.32" xmlns:cc="http://web.resource.org/cc/" xmlns:dc="http://purl.org/dc/elements/1.1/" xmlns:inkscape="http://www.inkscape.org/namespaces/inkscape" xmlns:rdf="http://www.w3.org/1999/02/22-rdf-syntax-ns#" xmlns:sodipodi="http://sodipodi.sourceforge.net/DTD/sodipodi-0.dtd" xmlns:svg="http://www.w3.org/2000/svg"
	 xmlns="http://www.w3.org/2000/svg" xmlns:xlink="http://www.w3.org/1999/xlink" x="0px" y="0px" viewBox="0 0 68.3 105.5"
	 style="enable-background:new 0 0 68.3 105.5;" xml:space="preserve">
<style type="text/css">
	.st0{fill:#26B3EB;}
</style>
<g id="paths">
	<path id="path2161" sodipodi:nodetypes="cccccccccccccccc" class="st0" d="M33.3,91.1c2.5-5.1,3.3-11.3,0.5-16.5
		c-2.1-4.2-4.8-7.8-7.4-11.7c-4.1-5.3-7.3-11.8-5.8-18.5c0.8-4.8,3.7-9,6-13.3c2.3-3.7,4.5-7.8,5.5-12.1c1.1-5.9-0.6-14.5-4.7-19.1
		l12.1,0c2.9,4.5,6.1,9.3,5.6,14.9c0.5,7.2-4.2,13.3-7.4,19.5c-3.7,5.9-6.5,13.3-3.4,20c2.9,6.3,7.6,11.7,11.1,17.8
		c2.9,4.5,3.1,10.2,2,15.2c-2.1,5.6-5.2,12.7-7.7,18.1l-13.1,0C28.2,100.5,31,95.9,33.3,91.1z"/>
	<path id="path2248" sodipodi:nodetypes="cccccccccccccccc" class="st0" d="M13,91.1c2.5-5.1,3.3-11.3,0.5-16.5
		c-2.1-4.2-4.8-7.8-7.4-11.7c-4.1-5.3-7.3-11.8-5.8-18.5c0.8-4.8,3.7-9,6-13.3c2.3-3.7,4.5-7.8,5.5-12.1C13.1,13.2,11.3,4.6,7.2,0
		l12.1,0c2.9,4.5,6.1,9.3,5.6,14.9c0.5,7.2-4.2,13.3-7.4,19.5c-3.7,5.9-6.5,13.3-3.4,20c2.9,6.3,7.6,11.7,11.1,17.8
		c2.9,4.5,3.1,10.2,2,15.2C25,93,22,100.1,19.4,105.5l-13.1,0C8,100.5,10.8,95.9,13,91.1z"/>
	<path id="path2250" sodipodi:nodetypes="cccccccccccccccc" class="st0" d="M53.6,91.1c2.5-5.1,3.3-11.3,0.5-16.5
		c-2.1-4.2-4.8-7.8-7.4-11.7c-4.1-5.3-7.3-11.8-5.8-18.5c0.8-4.8,3.7-9,6-13.3c2.3-3.7,4.5-7.8,5.5-12.1c1.1-5.9-0.6-14.5-4.7-19.1
		l12.1,0c2.9,4.5,6.1,9.3,5.6,14.9c0.5,7.2-4.2,13.3-7.4,19.5c-3.7,5.9-6.5,13.3-3.4,20c2.9,6.3,7.6,11.7,11.1,17.8
		c2.9,4.5,3.1,10.2,2,15.2c-2.1,5.6-5.2,12.7-7.7,18.1l-13.1,0C48.5,100.5,51.3,95.9,53.6,91.1z"/>
</g>
</svg>
